# xmcd
#
# Track frame offsets: 
#        150
#        19340
#        37363
#        56060
#        74303
#        89200
#        102895
#        116713
#        130103
#        144825
#        157980
#        170673
#        183163
#        197193
#        210463
#        224535
#        239623
#        253165
#        267108
#        280045
#        291523
#        306198
#
# Disc length: 4270 seconds
#
# Revision: 5
# Processed by: cddbd v1.5.2PL0 Copyright (c) Steve Scherf et al.
# Submitted via: ExactAudioCopy v0.95a5
#
DISCID=5f10ac16
DTITLE=Barney Bigard - 1944-1945 (THE CHRONICAL ¹ 930)
DYEAR=1997
DGENRE=Jazz
TTITLE0=Blues Before Dawn
TTITLE1=Poon-Tang
TTITLE2=Nine O'Clock Beer
TTITLE3=How Long Blues
TTITLE4=Can't Help Lovin' That Man
TTITLE5=Please Don't Talk About Me When I'm Gone
TTITLE6=Sweet Marijuana Brown
TTITLE7=Blue's For Art's Sake
TTITLE8=Rose Room
TTITLE9=Bojangles
TTITLE10=Coquette
TTITLE11=Borobudor
TTITLE12=My Melancholy Baby
TTITLE13=Sweet Georgia Brown
TTITLE14=Young Man's Blues - Part 1
TTITLE15=Young Man's Blues - Part 2
TTITLE16=Wini's Blues
TTITLE17=My Complaint, Baby
TTITLE18=Lazy River
TTITLE19=You Took My Man
TTITLE20=Rockin' Chair
TTITLE21=I Want A Little Boy
EXTD=YEAR: 1997
EXTT0=
EXTT1=
EXTT2=
EXTT3=
EXTT4=
EXTT5=
EXTT6=
EXTT7=
EXTT8=
EXTT9=
EXTT10=
EXTT11=
EXTT12=
EXTT13=
EXTT14=
EXTT15=
EXTT16=
EXTT17=
EXTT18=
EXTT19=
EXTT20=
EXTT21=
PLAYORDER=
